# xmcd
#
# Track frame offsets: 
#        150
#        13769
#        31615
#        48222
#        63784
#        79061
#
# Disc length: 1418 seconds
#
# Revision: 0
# Processed by: cddbd v1.5.1PL0 Copyright (c) Steve Scherf et al.
# Submitted via: ExactAudioCopy v0.95b2
#
DISCID=38058806
DTITLE=Here's The Sun - Hettwer and Lang
DYEAR=1900
DGENRE=R&B
TTITLE0=here's the sun
TTITLE1=reaching for the stars
TTITLE2=not only for tonight
TTITLE3=all I ever wanted
TTITLE4=amare a te
TTITLE5=here's the sun (unplugged)
EXTD=
EXTT0=
EXTT1=
EXTT2=
EXTT3=
EXTT4=
EXTT5=
PLAYORDER=
